<svg xmlns="http://www.w3.org/2000/svg" fill="none" width="1em" height="1em" viewBox="0 0 514 512">
  <path fill="currentColor" d="M2 401.431v-222.96h60.42v38.902h2.34c4.096-13.838 10.972-24.29 20.627-31.354 9.656-7.161 21.651-7.548 34.232-7.548h18.727v46.45h-31.175c-15.966 0-24.857 5.844-24.857 5.844-10.04 5.019-13.25 9.688-15.06 20.078 0 0-2.933 15.351-2.933 24.447v126.141H2Z"/>
  <path fill="currentColor" d="M255.294 178.471v46.45H116.608v-46.45h138.686Zm-106.94 222.96V162.359c0-16.161 3.169-29.564 9.509-40.209 6.437-10.645 15.214-18.628 26.333-23.95 11.118-5.323 23.748-7.984 37.89-7.984 9.558 0 18.286.726 26.186 2.177 7.998 1.452 13.947 2.758 17.848 3.92l-11.118 46.449c-2.438-.774-5.462-1.5-9.07-2.177a57.057 57.057 0 0 0-10.826-1.016c-9.168 0-15.556 2.129-19.165 6.387-3.608 4.161-5.413 10.016-5.413 17.564v237.911h-62.174Z"/>
  <path fill="currentColor" d="M244.821 401.431v-36.869l110.013-135.141v-4.5H248.625v-46.45h181.258v40.208L326.599 350.482v1.596h107.087v49.353H244.821Z"/>
  <circle cx="488.902" cy="376.333" r="25.098" fill="#EAB308"/>
</svg>